<svg xmlns="http://www.w3.org/2000/svg" viewBox="0 0 96 96" width="96" height="96">
  <rect x="0" y="0" width="96" height="96" fill="#8a8278"/>

  <!-- 篱笆 -->
  <rect x="18" y="26" width="60" height="50" rx="1" fill="none" stroke="#a09070" stroke-width="1"/>

  <!-- 田块1 -->
  <rect x="22" y="34" width="24" height="16" rx="0.5" fill="#6a5040" stroke="#5a4030" stroke-width="0.5"/>
  <line x1="34" y1="34" x2="34" y2="50" stroke="#5a4030" stroke-width="0.3"/>
  <line x1="22" y1="42" x2="46" y2="42" stroke="#5a4030" stroke-width="0.3"/>

  <!-- 田块2 -->
  <rect x="50" y="34" width="24" height="16" rx="0.5" fill="#6a5040" stroke="#5a4030" stroke-width="0.5"/>
  <line x1="62" y1="34" x2="62" y2="50" stroke="#5a4030" stroke-width="0.3"/>

  <!-- 田块3 -->
  <rect x="22" y="54" width="24" height="16" rx="0.5" fill="#6a5040" stroke="#5a4030" stroke-width="0.5"/>
  <line x1="22" y1="62" x2="46" y2="62" stroke="#5a4030" stroke-width="0.3"/>

  <!-- 田块4 -->
  <rect x="50" y="54" width="24" height="16" rx="0.5" fill="#6a5040" stroke="#5a4030" stroke-width="0.5"/>

  <!-- 秧苗 -->
  <circle cx="28" cy="38" r="1.5" fill="#50a040" opacity="0.8"/>
  <circle cx="40" cy="38" r="1.5" fill="#50a040" opacity="0.8"/>
  <circle cx="34" cy="46" r="1.5" fill="#50a040" opacity="0.8"/>
  <circle cx="56" cy="38" r="1.5" fill="#50a040" opacity="0.8"/>
  <circle cx="68" cy="46" r="1.5" fill="#50a040" opacity="0.8"/>
  <circle cx="28" cy="58" r="1.5" fill="#50a040" opacity="0.8"/>
  <circle cx="40" cy="62" r="1.5" fill="#50a040" opacity="0.8"/>
  <circle cx="56" cy="62" r="1.5" fill="#50a040" opacity="0.8"/>
  <circle cx="68" cy="58" r="1.5" fill="#50a040" opacity="0.8"/>

  <!-- 水 -->
  <rect x="22" y="36" width="24" height="2" fill="#4080c0" opacity="0.2"/>
  <rect x="50" y="36" width="24" height="2" fill="#4080c0" opacity="0.2"/>
  <rect x="22" y="56" width="24" height="2" fill="#4080c0" opacity="0.2"/>

  <!-- 田埂 -->
  <rect x="46" y="32" width="4" height="40" fill="#a09070"/>
  <rect x="20" y="50" width="52" height="4" fill="#a09070"/>

  <!-- 门 -->
  <rect x="44" y="76" width="8" height="2" fill="#3a2010"/>

  <!-- 草庐 -->
  <rect x="4" y="56" width="14" height="12" rx="0.5" fill="#c8b090"/>
  <polygon points="2,56 8,48 20,56" fill="#505038" stroke="#383828" stroke-width="0.4"/>
  <rect x="9" y="62" width="4" height="6" rx="0.3" fill="#3a2010"/>
</svg>
