<svg xmlns="http://www.w3.org/2000/svg" viewBox="0 0 96 96" width="96" height="96">
  <rect x="0" y="0" width="96" height="96" fill="#8a8278"/>

  <!-- 台基 -->
  <rect x="14" y="54" width="68" height="26" rx="1" fill="#c0b8a8" stroke="#a8a090" stroke-width="0.6"/>

  <!-- 塔身1 -->
  <rect x="24" y="42" width="48" height="16" rx="0.5" fill="#c8b090" stroke="#a89070" stroke-width="0.5"/>
  <!-- 塔身2 -->
  <rect x="30" y="28" width="36" height="16" rx="0.5" fill="#d0c0a8" stroke="#b0a088" stroke-width="0.5"/>
  <!-- 塔身3 -->
  <rect x="36" y="16" width="24" height="14" rx="0.5" fill="#d8c8b0" stroke="#b8a898" stroke-width="0.5"/>

  <!-- 刹 -->
  <line x1="48" y1="4" x2="48" y2="14" stroke="#d4a030" stroke-width="2"/>
  <circle cx="48" cy="3" r="2.5" fill="#ffd040" stroke="#d4a030" stroke-width="0.4"/>
  <path d="M45,6 L48,10 L51,6" fill="none" stroke="#d4a030" stroke-width="0.6"/>
  <circle cx="48" cy="14" r="1" fill="#d4a030"/>

  <!-- 檐1 -->
  <path d="M12,44 L24,30 L72,30 L84,44 Q78,42 74,46 L22,46 Q18,42 12,44 Z" fill="#505038" stroke="#383828" stroke-width="0.6"/>
  <path d="M12,44 Q10,40 14,38" fill="none" stroke="#505038" stroke-width="0.8" stroke-linecap="round"/>
  <path d="M84,44 Q86,40 82,38" fill="none" stroke="#505038" stroke-width="0.8" stroke-linecap="round"/>

  <!-- 檐2 -->
  <path d="M18,30 L30,18 L66,18 L78,30 Q72,28 68,32 L28,32 Q24,28 18,30 Z" fill="#404028" stroke="#282818" stroke-width="0.6"/>
  <path d="M18,30 Q16,26 20,24" fill="none" stroke="#404028" stroke-width="0.8" stroke-linecap="round"/>
  <path d="M78,30 Q80,26 76,24" fill="none" stroke="#404028" stroke-width="0.8" stroke-linecap="round"/>

  <!-- 檐3 -->
  <path d="M24,18 L36,8 L60,8 L72,18 Q66,16 62,20 L34,20 Q30,16 24,18 Z" fill="#302818" stroke="#181008" stroke-width="0.6"/>
  <path d="M24,18 Q22,14 26,12" fill="none" stroke="#302818" stroke-width="0.8" stroke-linecap="round"/>
  <path d="M72,18 Q74,14 70,12" fill="none" stroke="#302818" stroke-width="0.8" stroke-linecap="round"/>

  <!-- 窗 -->
  <rect x="40" y="46" width="6" height="6" rx="0.3" fill="#f0c060" opacity="0.5"/>
  <rect x="50" y="46" width="6" height="6" rx="0.3" fill="#f0c060" opacity="0.5"/>
  <rect x="44" y="32" width="5" height="6" rx="0.3" fill="#f0c060" opacity="0.5"/>
  <rect x="47" y="32" width="5" height="6" rx="0.3" fill="#f0c060" opacity="0.5"/>
  <rect x="46" y="18" width="4" height="5" rx="0.3" fill="#f0c060" opacity="0.5"/>

  <!-- 门 -->
  <rect x="40" y="68" width="16" height="12" rx="1" fill="#3a2010"/>

  <!-- 石栏 -->
  <rect x="14" y="76" width="68" height="2" fill="#a8a090"/>
  <rect x="18" y="74" width="2" height="5" fill="#a8a090"/>
  <rect x="28" y="74" width="2" height="5" fill="#a8a090"/>
  <rect x="66" y="74" width="2" height="5" fill="#a8a090"/>
  <rect x="76" y="74" width="2" height="5" fill="#a8a090"/>

  <!-- 阶 -->
  <rect x="38" y="80" width="20" height="2" rx="0.3" fill="#d0c8b8"/>
</svg>
