<svg xmlns="http://www.w3.org/2000/svg" viewBox="0 0 48 48" width="48" height="48">
  <rect x="10" y="41" width="28" height="2" rx="0.3" fill="#c0b8a8"/>
  <rect x="7" y="43" width="34" height="2" rx="0.3" fill="#b0a898"/>
  <rect x="4" y="45" width="40" height="3" rx="0.3" fill="#a09888"/>

  <rect x="14" y="16" width="5" height="26" rx="0.8" fill="#7040a0" stroke="#503080" stroke-width="0.6"/>
  <rect x="29" y="16" width="5" height="26" rx="0.8" fill="#7040a0" stroke="#503080" stroke-width="0.6"/>

  <rect x="13" y="40" width="7" height="2" rx="0.3" fill="#d0c8b8" stroke="#a09888" stroke-width="0.3"/>
  <rect x="28" y="40" width="7" height="2" rx="0.3" fill="#d0c8b8" stroke="#a09888" stroke-width="0.3"/>

  <rect x="13" y="30" width="22" height="3" rx="0.3" fill="#504080" stroke="#302060" stroke-width="0.4"/>
  <rect x="13" y="20" width="22" height="3" rx="0.3" fill="#504080" stroke="#302060" stroke-width="0.4"/>

  <rect x="17" y="24" width="14" height="5" rx="0.5" fill="#3a2010" stroke="#1a0e05" stroke-width="0.3"/>
  <circle cx="21" cy="26.5" r="0.6" fill="#c080ff"/>
  <circle cx="24" cy="26.5" r="0.6" fill="#c080ff"/>
  <circle cx="27" cy="26.5" r="0.6" fill="#c080ff"/>

  <polygon points="8,16 24,3 40,16" fill="#6040a0" stroke="#403080" stroke-width="0.8" stroke-linejoin="round"/>
  <polygon points="10,16 24,5 38,16" fill="#7850c0"/>
  <polygon points="12,16 24,7 36,16" fill="#9060d0"/>
  <path d="M8,16 Q16,18 24,16 Q32,18 40,16" fill="none" stroke="#403080" stroke-width="1.2"/>

  <line x1="22" y1="3" x2="26" y2="3" stroke="#c090ff" stroke-width="1.5"/>
  <circle cx="24" cy="3" r="1.5" fill="#c090ff" stroke="#9060d0" stroke-width="0.4"/>

  <path d="M8,16 Q6,15 5,13" fill="none" stroke="#6040a0" stroke-width="1.2" stroke-linecap="round"/>
  <path d="M40,16 Q42,15 43,13" fill="none" stroke="#6040a0" stroke-width="1.2" stroke-linecap="round"/>

  <rect x="13" y="16" width="22" height="2" rx="0.3" fill="#302060" opacity="0.5"/>
</svg>
