<svg xmlns="http://www.w3.org/2000/svg" viewBox="0 0 32 32" width="32" height="32">
  <!-- 圆形青玉底 -->
  <circle cx="16" cy="16" r="14" fill="#306050" stroke="#d4a436" stroke-width="1.5"/>

  <!-- 令牌主体 -->
  <rect x="10" y="7" width="12" height="18" rx="2" fill="#c0d8c8" stroke="#80a890" stroke-width="0.8"/>

  <!-- 令牌顶部云纹 -->
  <path d="M10,9 Q12,7 16,9 Q20,7 22,9" fill="#a0c8b0" stroke="#80a890" stroke-width="0.4"/>

  <!-- 令牌文字 "弟" 简化 -->
  <path d="M14,12 L18,12 L14,15 L18,15" fill="none" stroke="#406050" stroke-width="0.8" stroke-linejoin="round"/>
  <line x1="16" y1="10" x2="16" y2="18" stroke="#406050" stroke-width="0.8"/>
  <line x1="14" y1="18" x2="18" y2="18" stroke="#406050" stroke-width="0.6"/>

  <!-- 令牌底部孔 -->
  <circle cx="16" cy="22" r="1" fill="#306050"/>

  <!-- 穗带 -->
  <path d="M16,23 Q14,26 12,28" fill="none" stroke="#cc2020" stroke-width="0.8" stroke-linecap="round"/>
  <path d="M16,23 Q18,26 20,28" fill="none" stroke="#cc2020" stroke-width="0.8" stroke-linecap="round"/>
  <path d="M16,23 Q16,27 16,29" fill="none" stroke="#cc2020" stroke-width="0.8" stroke-linecap="round"/>

  <!-- 令牌灵光 -->
  <path d="M10,14 L8,14 M22,14 L24,14 M16,7 L16,5 M16,25 L16,27" stroke="#80e0c0" stroke-width="0.5" opacity="0.4"/>
</svg>
